<svg width="380" height="538" viewBox="0 0 380 538" fill="none" xmlns="http://www.w3.org/2000/svg">
<g clip-path="url(#clip0_139_67)">
<path d="M319.767 23.8905C314.104 20.9898 308.152 18.6927 302.008 17.0371L291.521 6.69435L287.061 2.32628C285.541 0.832019 283.493 -0.00368824 281.361 -3.12299e-06C280.768 0.00133326 280.176 0.0658508 279.595 0.19246L273.461 1.55643C269.963 2.34302 266.464 3.14355 262.966 3.95803L257.836 5.14628C240.336 9.16289 225.029 12.8113 211.061 16.2924C199.185 19.2463 186.631 22.493 171.567 26.5096L170.529 26.7774C163.432 28.6686 156.092 30.6183 148.845 32.635L145.623 33.5136C144.143 33.9179 142.81 34.7367 141.781 35.8734L139.53 38.3837L138.693 39.2958L138.049 40.0155C119.143 60.8266 100.178 81.897 81.6992 102.608L79.5065 105.026C78.4997 106.156 77.8274 107.544 77.5649 109.034L76.9958 112.273L64.9275 181.4C60.3245 189.341 56.006 197.224 52.0809 204.83C18.1692 270.678 -0.326543 339.738 -0.000147276 399.293C0.342987 462.345 21.7596 507.984 60.2575 527.808C73.7347 534.651 88.6623 538.147 103.777 538C140.208 538 182.497 518.904 222.861 484.236C263.226 449.568 299.506 402.121 327.961 346.86C361.872 281.012 380.368 211.952 380.042 152.397C379.648 89.3445 358.257 43.7058 319.767 23.8905Z" fill="#FF682C"/>
<path d="M316.052 31.0953C310.279 28.1388 304.178 25.8749 297.874 24.3507L285.839 12.5519L281.353 8.15038L275.227 9.51435C271.745 10.2926 268.272 11.0959 264.799 11.8992L259.66 13.0875C242.228 17.0873 226.971 20.719 213.019 24.2001C201.194 27.1038 188.682 30.3422 173.643 34.3086L172.605 34.5847C165.525 36.4675 158.21 38.4172 150.987 40.4423L147.765 41.3293L145.514 43.8396L144.677 44.735L144.033 45.4463C125.102 66.2908 106.154 87.3362 87.7168 108.005L85.5492 110.457L84.9801 113.704L72.6691 184.22C68.0382 192.147 63.5747 200.256 59.2785 208.546C25.9443 273.255 7.79167 340.977 8.1097 399.251C8.44446 459.132 28.2709 502.227 63.9485 520.586C76.2673 526.839 89.9126 530.028 103.727 529.883C138.216 529.883 178.631 511.474 217.547 478.077C257.041 444.145 292.718 397.477 320.705 343.144C354.031 278.443 372.208 210.713 371.882 152.447C371.589 92.5578 351.729 49.4629 316.052 31.0953Z" fill="#001051"/>
<path d="M308.745 337.015C373.457 211.387 372.754 82.1692 307.176 48.3991C241.598 14.6289 135.977 89.0944 71.2654 214.722C6.55356 340.351 7.25579 469.568 72.8339 503.339C138.412 537.109 244.033 462.643 308.745 337.015Z" fill="#001051"/>
<path d="M297.934 331.448C356.506 217.739 355.667 100.676 296.06 69.9802C236.452 39.2847 140.648 106.58 82.0761 220.29C23.5038 333.999 24.343 451.062 83.9505 481.757C143.558 512.453 239.362 445.157 297.934 331.448Z" fill="#FF682C"/>
<path d="M227.975 127.937C227.138 132.716 226.226 137.427 225.364 142.163L225.238 142.824L224.661 145.979C224.485 146.916 224.318 147.862 224.142 148.799L223.74 151.025C223.43 152.698 223.121 154.422 222.803 156.146C222.736 156.547 222.661 156.983 222.585 157.367C222.334 158.74 222.091 160.121 221.84 161.51C221.715 162.179 221.598 162.857 221.472 163.535C221.255 164.765 221.037 166.003 220.811 167.25C220.694 167.903 220.585 168.555 220.468 169.216C220.158 170.949 219.849 172.698 219.539 174.48C219.539 174.639 219.48 174.798 219.455 174.965C246.744 168.5 274.083 162.5 301.473 156.966L318.294 60.6006L277.738 20.7441C272.574 21.8989 267.41 23.1123 262.246 24.3005C246.755 27.8569 231.281 31.5053 215.815 35.3629C202.734 38.618 189.669 42.0573 176.614 45.4965C169.081 47.4964 161.549 49.4964 154.059 51.5716C153.573 52.0988 153.096 52.6427 152.611 53.1699C133.836 73.8387 115.087 94.6665 96.3621 115.653L57.3955 338.843C52.1731 368.772 46.948 398.699 41.7201 428.623C55.1107 440.46 68.5152 452.471 81.9337 464.655C123.048 453.342 164.278 443.069 205.621 433.836C224.97 413.485 244.331 393.302 263.703 373.285C273.403 317.747 284.625 253.406 294.325 197.868C258.723 205.065 223.185 213.048 187.711 221.817C185.786 232.813 183.867 243.808 181.953 254.804L176.028 288.736C184.218 286.711 192.42 284.728 200.633 282.786C198.516 294.878 196.256 307.848 193.938 320.927C191.009 337.705 188.079 354.65 185.343 370.173C177.702 371.98 170.069 373.854 162.436 375.737C158.938 376.602 155.443 377.469 151.95 378.34C143.759 380.398 135.569 382.49 127.378 384.616C143.631 291.531 158.444 209.132 174.697 116.047C193.991 111.026 213.312 106.214 232.662 101.612C231.046 110.817 229.515 119.293 228.017 127.511L227.975 127.937Z" fill="#001051"/>
<path d="M350.842 92.8172L338.288 80.4326V80.2486L277.738 20.7441C236.405 29.9544 195.179 40.2303 154.059 51.5716C134.799 72.7704 115.566 94.131 96.3621 115.653C78.1509 219.974 59.9369 324.294 41.7201 428.614L54.3993 440.438C54.3993 440.689 54.3073 440.94 54.2654 441.191L114.423 497.164C143.48 489.148 172.599 481.675 201.78 474.747C218.183 463.5 238.796 455.015 254.505 437.744C274.398 415.878 288.977 383.561 305.247 353.813C312.478 312.375 320.01 269.222 326.798 230.369L306.896 210.429L294.342 197.877L290.492 198.672C304.999 195.481 319.505 192.412 334.012 189.467L350.842 92.8172ZM196.097 308.777C192.498 329.412 188.74 350.918 185.376 370.214C179.378 371.637 173.38 373.085 167.382 374.557C172.17 347.32 176.873 320.743 181.56 294.225L188.615 301.212C188.611 301.246 188.611 301.279 188.615 301.313L196.097 308.777ZM194.657 220.177C198.792 196.797 202.96 173.066 207.211 148.59C213.136 147.039 219.067 145.516 225.004 144.021C223.196 153.853 221.372 163.861 219.43 174.982L239.357 194.898L251.417 206.956C232.491 211.134 213.572 215.527 194.657 220.135V220.177Z" fill="#001051"/>
<path d="M270.8 37.4047H270.674L265.536 38.5929C248.262 42.551 233.164 46.1241 219.371 49.5884C207.655 52.5088 195.26 55.7137 180.388 59.6718L179.342 59.9479C173.684 61.4542 167.851 63.0022 162.076 64.5838C144.56 83.8719 127.094 103.269 110.113 122.323L92.4035 223.75L71.8657 341.412L64.0908 385.946L57.6047 423.117C66.953 431.409 76.4269 439.903 85.8338 448.404C122.926 438.304 160.654 428.932 198.055 420.523C215.271 402.431 232.729 384.222 250.002 366.357L264.322 284.351L276.181 216.629C250.957 221.951 225.573 227.717 200.574 233.8L198.758 244.21L196.465 257.331L194.398 269.172L197.285 268.485L210.843 265.28L218.978 263.356L217.539 271.59L215.087 285.347L208.433 323.488L203.169 353.612L199.821 372.708L198.783 378.666L198.156 382.248L194.624 383.084L188.766 384.473C181.125 386.281 173.634 388.122 165.993 390.005L163.265 390.682L155.574 392.599C148.878 394.272 140.082 396.498 131.136 398.833L117.31 402.448L109.016 404.623L110.489 396.172L112.983 382.089C121.143 335.312 129.035 290.769 136.659 247.691C144.284 204.613 152.159 160.146 160.294 113.519L161.315 107.712L161.917 104.231L165.34 103.336L171.048 101.838C190.297 96.8171 209.898 91.9218 229.347 87.3111L242.905 84.1062L251.04 82.1815L249.601 90.4156L247.207 104.139C245.425 114.323 243.776 123.385 242.546 130.155V130.264L242.487 130.59L240.587 140.958L239.876 144.816L239.826 145.1L239.759 145.477L239.265 148.163L239.181 148.623L238.662 151.443L238.269 153.61L237.901 155.61C254.765 151.778 271.829 148.079 288.785 144.573L301.682 70.6924L302.519 65.6716L273.168 36.8189L270.8 37.4047Z" fill="#FFFBF5"/>
<path d="M274.875 30.8024L269.435 32.0659L264.305 33.2458C247.006 37.2206 231.866 40.8188 218.032 44.2664C206.316 47.1952 193.887 50.4001 178.974 54.3749L177.928 54.651C171.734 56.3246 165.374 57.9982 159.072 59.6718C140.852 79.7548 122.658 99.9383 104.957 119.77L86.9719 222.805L66.4424 340.425L58.6675 384.925L51.6542 425.091C62.534 434.731 73.4892 444.564 84.3774 454.379C122.875 443.844 162.043 434.104 200.892 425.393C218.878 406.489 237.106 387.486 255.141 368.842L269.754 285.163L282.96 209.491C253.852 215.541 224.594 222.16 195.72 229.223L193.327 243.264L191.042 256.385L187.795 274.971L187.527 276.485C191.226 275.587 194.903 274.708 198.557 273.849L212.115 270.644L209.722 284.359L203.026 322.509L197.762 352.633L194.415 371.729L193.369 377.687L187.51 379.084C179.869 380.892 172.354 382.733 164.679 384.624L161.951 385.302L154.235 387.218C147.539 388.892 138.668 391.143 129.755 393.469L115.929 397.084L118.381 383.009C126.516 336.425 134.416 291.798 142.057 248.628C149.698 205.458 157.565 160.974 165.709 114.473L166.721 108.616L172.429 107.126C191.678 102.106 211.22 97.2187 230.603 92.6331L244.161 89.4198L241.759 103.143C239.993 113.26 238.344 122.339 237.106 129.084V129.209L237.047 129.519L235.139 139.895L234.436 143.744L234.377 144.029L234.31 144.406L233.817 147.092L233.733 147.552L233.222 150.372L232.821 152.539L231.825 157.786L231.724 158.321L231.607 159.008L230.912 162.848C251.626 158.062 272.591 153.493 293.48 149.217L307.021 71.6379L308.394 63.7721L274.875 30.8024ZM301.615 70.6924L288.735 144.573C271.779 148.079 254.714 151.778 237.85 155.61L238.219 153.61L238.612 151.443L239.131 148.623L239.215 148.163L239.708 145.477L239.775 145.1L239.826 144.816L240.537 140.958L242.437 130.59L242.495 130.264V130.155C243.726 123.394 245.374 114.323 247.157 104.139L249.55 90.4156L250.99 82.1815L242.855 84.1062L229.314 87.3111C209.864 91.9218 190.247 96.8087 171.015 101.838L165.307 103.336L161.884 104.231L161.281 107.712L160.26 113.519C152.125 160.146 144.242 204.655 136.626 247.691C129.01 290.727 121.101 335.312 112.983 382.089L110.472 396.163L108.999 404.615L117.293 402.439L131.119 398.824C140.066 396.49 148.878 394.264 155.557 392.59L163.248 390.674L165.976 389.996C173.617 388.113 181.108 386.273 188.749 384.465L194.607 383.076L198.139 382.239L198.767 378.658L199.804 372.7L203.152 353.604L208.416 323.479L215.086 285.347L217.48 271.623L218.919 263.389L210.785 265.314L197.227 268.519L194.339 269.205L196.407 257.364L198.7 244.243L200.516 233.834C225.514 227.75 250.898 221.985 276.122 216.663L264.305 284.326L249.986 366.332C232.712 384.197 215.254 402.406 198.039 420.497C160.637 428.865 122.909 438.279 85.8169 448.379C76.4268 439.861 66.9529 431.367 57.6046 423.075L64.0907 385.904L71.8656 341.412L92.4034 223.792L110.113 122.348C127.093 103.336 144.56 83.9388 162.076 64.6507C167.851 63.0692 173.684 61.5211 179.342 60.0149L180.388 59.7387C195.26 55.7807 207.646 52.5758 219.371 49.6554C233.164 46.2161 248.262 42.6179 265.535 38.6599L270.674 37.4716H270.8L273.168 36.8189L302.46 65.6381L301.615 70.6924Z" fill="#FF682C"/>
</g>
<defs>
<clipPath id="clip0_139_67">
<rect width="380" height="538" fill="white"/>
</clipPath>
</defs>
</svg>
