<svg width="64" height="40" viewBox="0 0 64 40" fill="none" xmlns="http://www.w3.org/2000/svg">
<path d="M7.11586 14.5151L7.81198 18.1311H9.82299L6.36818 0.179443H3.4548L0 18.1311H1.85631L2.55242 14.5151H7.11586ZM4.79547 2.43623L6.83225 12.7969H2.81025L4.79547 2.43623Z" fill="white"/>
<path d="M11.3925 0.179443V18.1311H13.4036V0.179443H11.3925Z" fill="white"/>
<path d="M15.4713 0.179443V18.1311H17.4823V10.4632H18.9003C20.5761 10.4632 21.5301 11.1043 21.5301 13.1303V15.9512C21.5301 17.1566 21.6332 17.6182 21.8652 18.1311H23.902C23.5669 17.5156 23.5411 16.7719 23.5411 15.9769V13.1816C23.5411 11.2582 22.9223 9.92458 21.2723 9.43738C22.8192 8.95009 23.5153 7.7191 23.5153 5.74441V4.28262C23.5153 1.61554 22.3293 0.179443 19.4933 0.179443H15.4713ZM17.4823 8.64238V2.00023H19.4417C20.9371 2.00023 21.5301 2.84653 21.5301 4.46221V6.18041C21.5301 8.12948 20.5761 8.64238 18.9776 8.64238H17.4823Z" fill="white"/>
<path d="M25.6176 0.179443V18.1311H29.8459C32.6561 18.1311 33.9452 16.4385 33.9452 13.6945V4.64171C33.9452 1.87203 32.6561 0.179443 29.8459 0.179443H25.6176ZM27.6287 16.3103V2.00023H29.7943C31.2639 2.00023 31.96 2.89783 31.96 4.53911V13.7714C31.96 15.4127 31.2639 16.3103 29.8201 16.3103H27.6287Z" fill="white"/>
<path d="M35.8401 0.179443V18.1311H37.8511V10.4632H39.2692C40.9449 10.4632 41.8989 11.1043 41.8989 13.1303V15.9512C41.8989 17.1566 42.002 17.6182 42.2341 18.1311H44.2709C43.9357 17.5156 43.9099 16.7719 43.9099 15.9769V13.1816C43.9099 11.2582 43.2912 9.92458 41.6411 9.43738C43.188 8.95009 43.8841 7.7191 43.8841 5.74441V4.28262C43.8841 1.61554 42.6981 0.179443 39.8621 0.179443H35.8401ZM37.8511 8.64238V2.00023H39.8105C41.3059 2.00023 41.8989 2.84653 41.8989 4.46221V6.18041C41.8989 8.12948 40.9449 8.64238 39.3465 8.64238H37.8511Z" fill="white"/>
<path d="M45.8321 13.7972C45.8321 16.5156 47.1985 18.3108 49.9572 18.3108C52.7416 18.3108 54.1081 16.5156 54.1081 13.7972V4.51357C54.1081 1.76958 52.7416 0 49.9572 0C47.1985 0 45.8321 1.76958 45.8321 4.51357V13.7972ZM47.8173 4.41106C47.8173 2.79537 48.5134 1.82087 49.9572 1.82087C51.4268 1.82087 52.0971 2.79537 52.0971 4.41106V13.8998C52.0971 15.5411 51.4268 16.49 49.9572 16.49C48.5134 16.49 47.8173 15.5411 47.8173 13.8998V4.41106Z" fill="white"/>
<path d="M56.0077 0.179443V18.1311H58.0187V11.053H59.7977C62.6594 11.053 64.0001 9.56558 64.0001 6.71899V4.56472C64.0001 1.84634 62.7883 0.179443 59.9523 0.179443H56.0077ZM58.0187 9.25788V2.00023H59.9523C61.4219 2.00023 62.0149 2.82084 62.0149 4.46221V6.8472C62.0149 8.56539 61.293 9.25788 59.7977 9.25788H58.0187Z" fill="white"/>
<path d="M3.35147 32.0757H6.57423V39.7693H9.46187V21.8176H6.57423V29.5112H3.35147V21.8176H0.515442V39.7693H3.35147V32.0757Z" fill="#00C2B4"/>
<path d="M12.0338 21.8176V35.4865C12.0338 38.3588 13.4776 40.0001 16.2621 40.0001C19.0466 40.0001 20.4903 38.3588 20.4903 35.4865V21.8176H17.809V35.666C17.809 36.9483 17.2418 37.4099 16.3394 37.4099C15.437 37.4099 14.8698 36.9483 14.8698 35.666V21.8176H12.0338Z" fill="#00C2B4"/>
<path d="M29.1385 39.7693H32.0518V21.8176H29.5253V32.563L26.6118 21.8176H23.054V39.7693H25.6064V26.7671L29.1385 39.7693Z" fill="#00C2B4"/>
<path d="M33.9021 24.3821H36.867V39.7693H39.703V24.3821H42.668V21.8176H33.9021V24.3821Z" fill="#00C2B4"/>
<path d="M47.3974 24.3821H52.296V21.8176H44.5614V39.7693H52.296V37.2047H47.3974V31.9475H51.2906V29.383H47.3974V24.3821Z" fill="#00C2B4"/>
<path d="M63.5154 39.7693C63.2318 39.1025 63.2061 38.4614 63.2061 37.5894V34.8197C63.2061 32.9476 62.7419 31.5885 61.3239 30.9986C62.5873 30.4088 63.1803 29.2035 63.1803 27.357V25.9465C63.1803 23.1768 61.917 21.8176 58.9778 21.8176H54.698V39.7693H57.534V32.4604H58.5137C59.8028 32.4604 60.3701 33.0759 60.3701 34.7428V37.5638C60.3701 39.0256 60.4731 39.3077 60.6278 39.7693H63.5154ZM58.9005 24.3821C59.9059 24.3821 60.3442 24.9463 60.3442 26.2286V27.9981C60.3442 29.4343 59.6997 29.8959 58.6426 29.8959H57.534V24.3821H58.9005Z" fill="#00C2B4"/>
</svg>
