<svg width="316" height="74" viewBox="0 0 316 74" fill="none" xmlns="http://www.w3.org/2000/svg">
<path d="M0.876358 15.1078V73.1219H9.20455V31.1127H9.74276L26.8524 73.0369H33.7642L50.8738 31.141H51.412V73.1219H59.7402V15.1078H49.1175L30.6482 60.2047H29.9684L11.499 15.1078H0.876358Z" fill="white"/>
<path d="M92.019 74C101.509 74 108.222 69.326 110.148 62.2442L102.132 60.7995C100.602 64.907 96.9196 67.0032 92.104 67.0032C84.8522 67.0032 79.98 62.3009 79.7534 53.916H110.687V50.9134C110.687 35.1918 101.282 29.0448 91.4242 29.0448C79.3001 29.0448 71.3119 38.2794 71.3119 51.6499C71.3119 65.1619 79.1868 74 92.019 74ZM79.7817 47.5708C80.1216 41.3954 84.5973 36.0416 91.4808 36.0416C98.0527 36.0416 102.358 40.9139 102.387 47.5708H79.7817Z" fill="white"/>
<path d="M152.689 40.234C150.932 33.4638 145.635 29.0448 136.231 29.0448C126.401 29.0448 119.433 34.2287 119.433 41.9336C119.433 48.109 123.172 52.2164 131.33 54.0293L138.695 55.644C142.888 56.5788 144.842 58.4484 144.842 61.1678C144.842 64.5387 141.245 67.1732 135.692 67.1732C130.622 67.1732 127.364 64.992 126.344 60.7146L118.158 61.9609C119.574 69.6659 125.976 74 135.749 74C146.258 74 153.539 68.4195 153.539 60.5446C153.539 54.3976 149.629 50.6018 141.641 48.7605L134.729 47.1742C129.942 46.0411 127.874 44.4264 127.902 41.4804C127.874 38.1378 131.5 35.7583 136.316 35.7583C141.584 35.7583 144.021 38.676 145.012 41.5937L152.689 40.234Z" fill="white"/>
<path d="M183.162 29.6113H174.239V19.1869H165.769V29.6113H159.395V36.4099H165.769V62.1026C165.74 70.0059 171.774 73.83 178.459 73.6884C181.15 73.6601 182.963 73.1502 183.955 72.7819L182.425 65.7851C181.859 65.8984 180.811 66.1534 179.451 66.1534C176.703 66.1534 174.239 65.2469 174.239 60.3463V36.4099H183.162V29.6113Z" fill="white"/>
<path d="M210.391 74C222.657 74 230.673 65.0203 230.673 51.5649C230.673 38.0245 222.657 29.0448 210.391 29.0448C198.126 29.0448 190.109 38.0245 190.109 51.5649C190.109 65.0203 198.126 74 210.391 74ZM210.419 66.8899C202.403 66.8899 198.664 59.8931 198.664 51.5366C198.664 43.2084 202.403 36.1266 210.419 36.1266C218.379 36.1266 222.119 43.2084 222.119 51.5366C222.119 59.8931 218.379 66.8899 210.419 66.8899Z" fill="white"/>
<path d="M238.368 19.9423H240.71V12.3884H244.94C245.11 12.3884 245.271 12.3884 245.431 12.379L249.51 19.9423H252.23L247.858 11.9541C250.322 11.1137 251.474 9.10246 251.474 6.53413C251.474 3.11599 249.435 0.604312 244.902 0.604312H238.368V19.9423ZM240.71 10.2733V2.68164H244.827C247.962 2.68164 249.17 4.21131 249.17 6.53413C249.17 8.85696 247.962 10.2733 244.865 10.2733H240.71Z" fill="white"/>
<path d="M264.214 14.0125C264.214 16.7319 262.137 17.9783 260.475 17.9783C258.624 17.9783 257.303 16.6186 257.303 14.5035V5.43881H255.074V14.6546C255.074 18.356 257.038 20.1312 259.758 20.1312C261.948 20.1312 263.383 18.9603 264.063 17.4873H264.214V19.9423H266.443V5.43881H264.214V14.0125Z" fill="white"/>
<path d="M280.798 8.687C280.099 6.62856 278.531 5.24997 275.661 5.24997C272.602 5.24997 270.335 6.98737 270.335 9.44239C270.335 11.4442 271.525 12.785 274.188 13.4082L276.605 13.9747C278.069 14.3147 278.758 15.0134 278.758 16.0143C278.758 17.2607 277.436 18.2805 275.359 18.2805C273.536 18.2805 272.394 17.4967 271.997 15.9388L269.882 16.4675C270.401 18.932 272.432 20.2445 275.396 20.2445C278.767 20.2445 281.062 18.4032 281.062 15.901C281.062 13.8803 279.797 12.6056 277.209 11.9729L275.057 11.4442C273.338 11.0193 272.564 10.4433 272.564 9.32908C272.564 8.08268 273.886 7.17621 275.661 7.17621C277.606 7.17621 278.409 8.25265 278.796 9.25354L280.798 8.687Z" fill="white"/>
<path d="M294.69 8.687C293.991 6.62856 292.423 5.24997 289.553 5.24997C286.494 5.24997 284.227 6.98737 284.227 9.44239C284.227 11.4442 285.417 12.785 288.08 13.4082L290.497 13.9747C291.961 14.3147 292.65 15.0134 292.65 16.0143C292.65 17.2607 291.328 18.2805 289.251 18.2805C287.428 18.2805 286.286 17.4967 285.889 15.9388L283.774 16.4675C284.294 18.932 286.324 20.2445 289.289 20.2445C292.66 20.2445 294.954 18.4032 294.954 15.901C294.954 13.8803 293.689 12.6056 291.102 11.9729L288.949 11.4442C287.23 11.0193 286.456 10.4433 286.456 9.32908C286.456 8.08268 287.778 7.17621 289.553 7.17621C291.498 7.17621 292.301 8.25265 292.688 9.25354L294.69 8.687Z" fill="white"/>
<path d="M298.308 19.9423H300.537V5.43881H298.308V19.9423ZM299.442 3.02156C300.31 3.02156 301.028 2.34171 301.028 1.51078C301.028 0.679852 300.31 0 299.442 0C298.573 0 297.855 0.679852 297.855 1.51078C297.855 2.34171 298.573 3.02156 299.442 3.02156Z" fill="white"/>
<path d="M308.886 20.2823C311.417 20.2823 312.739 18.9225 313.192 17.9783H313.305V19.9423H315.534V10.3866C315.534 5.77874 312.021 5.24997 310.17 5.24997C307.98 5.24997 305.487 6.00536 304.354 8.64923L306.469 9.40462C306.96 8.34707 308.121 7.21399 310.246 7.21399C312.295 7.21399 313.305 8.29986 313.305 10.16V10.2355C313.305 11.312 312.21 11.2176 309.566 11.5575C306.875 11.9069 303.938 12.5017 303.938 15.8254C303.938 18.6582 306.129 20.2823 308.886 20.2823ZM309.226 18.2805C307.451 18.2805 306.167 17.4873 306.167 15.9388C306.167 14.2391 307.715 13.7103 309.453 13.4837C310.397 13.3704 312.928 13.106 313.305 12.6528V14.6924C313.305 16.5053 311.87 18.2805 309.226 18.2805Z" fill="white"/>
</svg>
